<svg width="24" height="24" viewBox="0 0 24 24" fill="none" xmlns="http://www.w3.org/2000/svg">
<path fill-rule="evenodd" clip-rule="evenodd" d="M13.7 5H7.4C7.0287 5 6.6726 5.1475 6.41005 5.41005C6.1475 5.6726 6 6.0287 6 6.4V17.6C6 17.9713 6.1475 18.3274 6.41005 18.5899C6.6726 18.8525 7.0287 19 7.4 19H13.7C14.0713 19 14.4274 18.8525 14.6899 18.5899C14.9525 18.3274 15.1 17.9713 15.1 17.6V16.9C15.1 16.7143 15.0263 16.5363 14.895 16.405C14.7637 16.2737 14.5857 16.2 14.4 16.2C14.2143 16.2 14.0363 16.2737 13.905 16.405C13.7738 16.5363 13.7 16.7143 13.7 16.9V17.6H7.4V6.4H13.7V7.1C13.7 7.28565 13.7738 7.4637 13.905 7.59497C14.0363 7.72625 14.2143 7.8 14.4 7.8C14.5857 7.8 14.7637 7.72625 14.895 7.59497C15.0263 7.4637 15.1 7.28565 15.1 7.1V6.4C15.1 6.0287 14.9525 5.6726 14.6899 5.41005C14.4274 5.1475 14.0713 5 13.7 5ZM15.9435 15.0065C15.6705 15.2795 15.2295 15.2795 14.9565 15.0065C14.8256 14.8755 14.7521 14.6979 14.752 14.5128C14.7518 14.3276 14.8251 14.15 14.9558 14.0188L16.269 12.7H10.2C10.0143 12.7 9.8363 12.6262 9.70503 12.495C9.57375 12.3637 9.5 12.1856 9.5 12C9.5 11.8143 9.57375 11.6363 9.70503 11.505C9.8363 11.3737 10.0143 11.3 10.2 11.3H16.269L14.9558 9.9812C14.8355 9.84813 14.771 9.67395 14.7755 9.49465C14.78 9.31535 14.8533 9.14464 14.9801 9.01782C15.1069 8.89099 15.2777 8.81774 15.457 8.81322C15.6363 8.80869 15.8104 8.87323 15.9435 8.9935L18.4551 11.5051C18.5863 11.6364 18.6601 11.8144 18.6601 12C18.6601 12.1856 18.5863 12.3636 18.4551 12.4949L15.9435 15.0065Z" fill="#39393A"/>
</svg>
